<?xml version="1.0" encoding="UTF-8" standalone="no"?>
<!-- Created with Inkscape (http://www.inkscape.org/) -->

<svg
   version="1.1"
   id="svg2459"
   xml:space="preserve"
   width="793.33331"
   height="1122.6667"
   viewBox="0 0 793.33331 1122.6667"
   sodipodi:docname="honnert_vs_tanh.eps"
   xmlns:inkscape="http://www.inkscape.org/namespaces/inkscape"
   xmlns:sodipodi="http://sodipodi.sourceforge.net/DTD/sodipodi-0.dtd"
   xmlns="http://www.w3.org/2000/svg"
   xmlns:svg="http://www.w3.org/2000/svg"><defs
     id="defs2463" /><sodipodi:namedview
     id="namedview2461"
     pagecolor="#ffffff"
     bordercolor="#666666"
     borderopacity="1.0"
     inkscape:pageshadow="2"
     inkscape:pageopacity="0.0"
     inkscape:pagecheckerboard="0" /><g
     id="g2465"
     inkscape:groupmode="layer"
     inkscape:label="ink_ext_XXXXXX"
     transform="matrix(1.3333333,0,0,-1.3333333,0,1122.6667)"><g
       id="g2467"
       transform="scale(0.1)"><path
         d="M 1393.94,1278.68 H 5836.12"
         style="fill:none;stroke:#000000;stroke-width:2.83465;stroke-linecap:butt;stroke-linejoin:miter;stroke-miterlimit:2.5;stroke-dasharray:none;stroke-opacity:1"
         id="path2469" /><path
         d="m 1975.04,1278.68 v 95.53"
         style="fill:none;stroke:#000000;stroke-width:2.83465;stroke-linecap:butt;stroke-linejoin:miter;stroke-miterlimit:2.5;stroke-dasharray:none;stroke-opacity:1"
         id="path2471" /><g
         id="g2473"
         transform="scale(10)"><text
           transform="matrix(1,0,0,-1,184.994,105.418)"
           style="font-variant:normal;font-weight:normal;font-size:18px;font-family:Helvetica;-inkscape-font-specification:Helvetica;writing-mode:lr-tb;fill:#000000;fill-opacity:1;fill-rule:nonzero;stroke:none"
           id="text2477"><tspan
             x="0 10.008 15.012"
             y="0"
             sodipodi:role="line"
             id="tspan2475">0.1</tspan></text></g><path
         d="m 3905.72,1278.68 v 95.53"
         style="fill:none;stroke:#000000;stroke-width:2.83465;stroke-linecap:butt;stroke-linejoin:miter;stroke-miterlimit:2.5;stroke-dasharray:none;stroke-opacity:1"
         id="path2479" /><g
         id="g2481"
         transform="scale(10)"><text
           transform="matrix(1,0,0,-1,378.062,105.418)"
           style="font-variant:normal;font-weight:normal;font-size:18px;font-family:Helvetica;-inkscape-font-specification:Helvetica;writing-mode:lr-tb;fill:#000000;fill-opacity:1;fill-rule:nonzero;stroke:none"
           id="text2485"><tspan
             x="0 10.008 15.012"
             y="0"
             sodipodi:role="line"
             id="tspan2483">1.0</tspan></text></g><path
         d="m 5836.12,1278.68 v 95.53"
         style="fill:none;stroke:#000000;stroke-width:2.83465;stroke-linecap:butt;stroke-linejoin:miter;stroke-miterlimit:2.5;stroke-dasharray:none;stroke-opacity:1"
         id="path2487" /><g
         id="g2489"
         transform="scale(10)"><text
           transform="matrix(1,0,0,-1,566.098,105.418)"
           style="font-variant:normal;font-weight:normal;font-size:18px;font-family:Helvetica;-inkscape-font-specification:Helvetica;writing-mode:lr-tb;fill:#000000;fill-opacity:1;fill-rule:nonzero;stroke:none"
           id="text2493"><tspan
             x="0 10.008 20.016001 25.02"
             y="0"
             sodipodi:role="line"
             id="tspan2491">10.0</tspan></text></g><path
         d="m 1393.94,1278.68 v 47.62"
         style="fill:none;stroke:#000000;stroke-width:2.83465;stroke-linecap:butt;stroke-linejoin:miter;stroke-miterlimit:2.5;stroke-dasharray:none;stroke-opacity:1"
         id="path2495" /><path
         d="m 1546.73,1278.68 v 47.62"
         style="fill:none;stroke:#000000;stroke-width:2.83465;stroke-linecap:butt;stroke-linejoin:miter;stroke-miterlimit:2.5;stroke-dasharray:none;stroke-opacity:1"
         id="path2497" /><path
         d="m 1675.98,1278.68 v 47.62"
         style="fill:none;stroke:#000000;stroke-width:2.83465;stroke-linecap:butt;stroke-linejoin:miter;stroke-miterlimit:2.5;stroke-dasharray:none;stroke-opacity:1"
         id="path2499" /><path
         d="m 1787.95,1278.68 v 47.62"
         style="fill:none;stroke:#000000;stroke-width:2.83465;stroke-linecap:butt;stroke-linejoin:miter;stroke-miterlimit:2.5;stroke-dasharray:none;stroke-opacity:1"
         id="path2501" /><path
         d="m 1886.88,1278.68 v 47.62"
         style="fill:none;stroke:#000000;stroke-width:2.83465;stroke-linecap:butt;stroke-linejoin:miter;stroke-miterlimit:2.5;stroke-dasharray:none;stroke-opacity:1"
         id="path2503" /><path
         d="m 2556.14,1278.68 v 47.62"
         style="fill:none;stroke:#000000;stroke-width:2.83465;stroke-linecap:butt;stroke-linejoin:miter;stroke-miterlimit:2.5;stroke-dasharray:none;stroke-opacity:1"
         id="path2505" /><path
         d="m 2896.3,1278.68 v 47.62"
         style="fill:none;stroke:#000000;stroke-width:2.83465;stroke-linecap:butt;stroke-linejoin:miter;stroke-miterlimit:2.5;stroke-dasharray:none;stroke-opacity:1"
         id="path2507" /><path
         d="m 3137.53,1278.68 v 47.62"
         style="fill:none;stroke:#000000;stroke-width:2.83465;stroke-linecap:butt;stroke-linejoin:miter;stroke-miterlimit:2.5;stroke-dasharray:none;stroke-opacity:1"
         id="path2509" /><path
         d="m 3324.62,1278.68 v 47.62"
         style="fill:none;stroke:#000000;stroke-width:2.83465;stroke-linecap:butt;stroke-linejoin:miter;stroke-miterlimit:2.5;stroke-dasharray:none;stroke-opacity:1"
         id="path2511" /><path
         d="m 3477.41,1278.68 v 47.62"
         style="fill:none;stroke:#000000;stroke-width:2.83465;stroke-linecap:butt;stroke-linejoin:miter;stroke-miterlimit:2.5;stroke-dasharray:none;stroke-opacity:1"
         id="path2513" /><path
         d="m 3606.67,1278.68 v 47.62"
         style="fill:none;stroke:#000000;stroke-width:2.83465;stroke-linecap:butt;stroke-linejoin:miter;stroke-miterlimit:2.5;stroke-dasharray:none;stroke-opacity:1"
         id="path2515" /><path
         d="m 3718.64,1278.68 v 47.62"
         style="fill:none;stroke:#000000;stroke-width:2.83465;stroke-linecap:butt;stroke-linejoin:miter;stroke-miterlimit:2.5;stroke-dasharray:none;stroke-opacity:1"
         id="path2517" /><path
         d="m 3817.28,1278.68 v 47.62"
         style="fill:none;stroke:#000000;stroke-width:2.83465;stroke-linecap:butt;stroke-linejoin:miter;stroke-miterlimit:2.5;stroke-dasharray:none;stroke-opacity:1"
         id="path2519" /><path
         d="m 4486.82,1278.68 v 47.62"
         style="fill:none;stroke:#000000;stroke-width:2.83465;stroke-linecap:butt;stroke-linejoin:miter;stroke-miterlimit:2.5;stroke-dasharray:none;stroke-opacity:1"
         id="path2521" /><path
         d="m 4826.7,1278.68 v 47.62"
         style="fill:none;stroke:#000000;stroke-width:2.83465;stroke-linecap:butt;stroke-linejoin:miter;stroke-miterlimit:2.5;stroke-dasharray:none;stroke-opacity:1"
         id="path2523" /><path
         d="m 5067.93,1278.68 v 47.62"
         style="fill:none;stroke:#000000;stroke-width:2.83465;stroke-linecap:butt;stroke-linejoin:miter;stroke-miterlimit:2.5;stroke-dasharray:none;stroke-opacity:1"
         id="path2525" /><path
         d="m 5255.02,1278.68 v 47.62"
         style="fill:none;stroke:#000000;stroke-width:2.83465;stroke-linecap:butt;stroke-linejoin:miter;stroke-miterlimit:2.5;stroke-dasharray:none;stroke-opacity:1"
         id="path2527" /><path
         d="m 5407.8,1278.68 v 47.62"
         style="fill:none;stroke:#000000;stroke-width:2.83465;stroke-linecap:butt;stroke-linejoin:miter;stroke-miterlimit:2.5;stroke-dasharray:none;stroke-opacity:1"
         id="path2529" /><path
         d="m 5537.06,1278.68 v 47.62"
         style="fill:none;stroke:#000000;stroke-width:2.83465;stroke-linecap:butt;stroke-linejoin:miter;stroke-miterlimit:2.5;stroke-dasharray:none;stroke-opacity:1"
         id="path2531" /><path
         d="m 5649.03,1278.68 v 47.62"
         style="fill:none;stroke:#000000;stroke-width:2.83465;stroke-linecap:butt;stroke-linejoin:miter;stroke-miterlimit:2.5;stroke-dasharray:none;stroke-opacity:1"
         id="path2533" /><path
         d="m 5747.68,1278.68 v 47.62"
         style="fill:none;stroke:#000000;stroke-width:2.83465;stroke-linecap:butt;stroke-linejoin:miter;stroke-miterlimit:2.5;stroke-dasharray:none;stroke-opacity:1"
         id="path2535" /><g
         id="g2537"
         transform="scale(10)"><text
           transform="matrix(1,0,0,-1,334.893,85.9719)"
           style="font-variant:normal;font-weight:normal;font-size:18px;font-family:Symbol;-inkscape-font-specification:Symbol;writing-mode:lr-tb;fill:#000000;fill-opacity:1;fill-rule:nonzero;stroke:none"
           id="text2541"><tspan
             x="0"
             y="0"
             id="tspan2539">∆</tspan></text><text
           transform="matrix(1,0,0,-1,345.909,85.9719)"
           style="font-variant:normal;font-weight:normal;font-size:18px;font-family:Helvetica;-inkscape-font-specification:Helvetica;writing-mode:lr-tb;fill:#000000;fill-opacity:1;fill-rule:nonzero;stroke:none"
           id="text2545"><tspan
             x="0 9 14.004"
             y="0"
             sodipodi:role="line"
             id="tspan2543">x/z</tspan></text><text
           transform="matrix(1,0,0,-1,368.9129,81.67502)"
           style="font-variant:normal;font-weight:normal;font-size:11.16px;font-family:Helvetica;-inkscape-font-specification:Helvetica;writing-mode:lr-tb;fill:#000000;fill-opacity:1;fill-rule:nonzero;stroke:none"
           id="text2549"><tspan
             x="0 3.1024799 9.3074398 13.02372"
             y="0"
             sodipodi:role="line"
             id="tspan2547">turb</tspan></text></g><path
         d="M 1393.94,6049.96 H 5836.12"
         style="fill:none;stroke:#000000;stroke-width:2.83465;stroke-linecap:butt;stroke-linejoin:miter;stroke-miterlimit:2.5;stroke-dasharray:none;stroke-opacity:1"
         id="path2551" /><path
         d="m 1975.04,6049.96 v -95.53"
         style="fill:none;stroke:#000000;stroke-width:2.83465;stroke-linecap:butt;stroke-linejoin:miter;stroke-miterlimit:2.5;stroke-dasharray:none;stroke-opacity:1"
         id="path2553" /><path
         d="m 3905.72,6049.96 v -95.53"
         style="fill:none;stroke:#000000;stroke-width:2.83465;stroke-linecap:butt;stroke-linejoin:miter;stroke-miterlimit:2.5;stroke-dasharray:none;stroke-opacity:1"
         id="path2555" /><path
         d="m 5836.12,6049.96 v -95.53"
         style="fill:none;stroke:#000000;stroke-width:2.83465;stroke-linecap:butt;stroke-linejoin:miter;stroke-miterlimit:2.5;stroke-dasharray:none;stroke-opacity:1"
         id="path2557" /><path
         d="m 1393.94,6049.96 v -47.62"
         style="fill:none;stroke:#000000;stroke-width:2.83465;stroke-linecap:butt;stroke-linejoin:miter;stroke-miterlimit:2.5;stroke-dasharray:none;stroke-opacity:1"
         id="path2559" /><path
         d="m 1546.73,6049.96 v -47.62"
         style="fill:none;stroke:#000000;stroke-width:2.83465;stroke-linecap:butt;stroke-linejoin:miter;stroke-miterlimit:2.5;stroke-dasharray:none;stroke-opacity:1"
         id="path2561" /><path
         d="m 1675.98,6049.96 v -47.62"
         style="fill:none;stroke:#000000;stroke-width:2.83465;stroke-linecap:butt;stroke-linejoin:miter;stroke-miterlimit:2.5;stroke-dasharray:none;stroke-opacity:1"
         id="path2563" /><path
         d="m 1787.95,6049.96 v -47.62"
         style="fill:none;stroke:#000000;stroke-width:2.83465;stroke-linecap:butt;stroke-linejoin:miter;stroke-miterlimit:2.5;stroke-dasharray:none;stroke-opacity:1"
         id="path2565" /><path
         d="m 1886.88,6049.96 v -47.62"
         style="fill:none;stroke:#000000;stroke-width:2.83465;stroke-linecap:butt;stroke-linejoin:miter;stroke-miterlimit:2.5;stroke-dasharray:none;stroke-opacity:1"
         id="path2567" /><path
         d="m 2556.14,6049.96 v -47.62"
         style="fill:none;stroke:#000000;stroke-width:2.83465;stroke-linecap:butt;stroke-linejoin:miter;stroke-miterlimit:2.5;stroke-dasharray:none;stroke-opacity:1"
         id="path2569" /><path
         d="m 2896.3,6049.96 v -47.62"
         style="fill:none;stroke:#000000;stroke-width:2.83465;stroke-linecap:butt;stroke-linejoin:miter;stroke-miterlimit:2.5;stroke-dasharray:none;stroke-opacity:1"
         id="path2571" /><path
         d="m 3137.53,6049.96 v -47.62"
         style="fill:none;stroke:#000000;stroke-width:2.83465;stroke-linecap:butt;stroke-linejoin:miter;stroke-miterlimit:2.5;stroke-dasharray:none;stroke-opacity:1"
         id="path2573" /><path
         d="m 3324.62,6049.96 v -47.62"
         style="fill:none;stroke:#000000;stroke-width:2.83465;stroke-linecap:butt;stroke-linejoin:miter;stroke-miterlimit:2.5;stroke-dasharray:none;stroke-opacity:1"
         id="path2575" /><path
         d="m 3477.41,6049.96 v -47.62"
         style="fill:none;stroke:#000000;stroke-width:2.83465;stroke-linecap:butt;stroke-linejoin:miter;stroke-miterlimit:2.5;stroke-dasharray:none;stroke-opacity:1"
         id="path2577" /><path
         d="m 3606.67,6049.96 v -47.62"
         style="fill:none;stroke:#000000;stroke-width:2.83465;stroke-linecap:butt;stroke-linejoin:miter;stroke-miterlimit:2.5;stroke-dasharray:none;stroke-opacity:1"
         id="path2579" /><path
         d="m 3718.64,6049.96 v -47.62"
         style="fill:none;stroke:#000000;stroke-width:2.83465;stroke-linecap:butt;stroke-linejoin:miter;stroke-miterlimit:2.5;stroke-dasharray:none;stroke-opacity:1"
         id="path2581" /><path
         d="m 3817.28,6049.96 v -47.62"
         style="fill:none;stroke:#000000;stroke-width:2.83465;stroke-linecap:butt;stroke-linejoin:miter;stroke-miterlimit:2.5;stroke-dasharray:none;stroke-opacity:1"
         id="path2583" /><path
         d="m 4486.82,6049.96 v -47.62"
         style="fill:none;stroke:#000000;stroke-width:2.83465;stroke-linecap:butt;stroke-linejoin:miter;stroke-miterlimit:2.5;stroke-dasharray:none;stroke-opacity:1"
         id="path2585" /><path
         d="m 4826.7,6049.96 v -47.62"
         style="fill:none;stroke:#000000;stroke-width:2.83465;stroke-linecap:butt;stroke-linejoin:miter;stroke-miterlimit:2.5;stroke-dasharray:none;stroke-opacity:1"
         id="path2587" /><path
         d="m 5067.93,6049.96 v -47.62"
         style="fill:none;stroke:#000000;stroke-width:2.83465;stroke-linecap:butt;stroke-linejoin:miter;stroke-miterlimit:2.5;stroke-dasharray:none;stroke-opacity:1"
         id="path2589" /><path
         d="m 5255.02,6049.96 v -47.62"
         style="fill:none;stroke:#000000;stroke-width:2.83465;stroke-linecap:butt;stroke-linejoin:miter;stroke-miterlimit:2.5;stroke-dasharray:none;stroke-opacity:1"
         id="path2591" /><path
         d="m 5407.8,6049.96 v -47.62"
         style="fill:none;stroke:#000000;stroke-width:2.83465;stroke-linecap:butt;stroke-linejoin:miter;stroke-miterlimit:2.5;stroke-dasharray:none;stroke-opacity:1"
         id="path2593" /><path
         d="m 5537.06,6049.96 v -47.62"
         style="fill:none;stroke:#000000;stroke-width:2.83465;stroke-linecap:butt;stroke-linejoin:miter;stroke-miterlimit:2.5;stroke-dasharray:none;stroke-opacity:1"
         id="path2595" /><path
         d="m 5649.03,6049.96 v -47.62"
         style="fill:none;stroke:#000000;stroke-width:2.83465;stroke-linecap:butt;stroke-linejoin:miter;stroke-miterlimit:2.5;stroke-dasharray:none;stroke-opacity:1"
         id="path2597" /><path
         d="m 5747.68,6049.96 v -47.62"
         style="fill:none;stroke:#000000;stroke-width:2.83465;stroke-linecap:butt;stroke-linejoin:miter;stroke-miterlimit:2.5;stroke-dasharray:none;stroke-opacity:1"
         id="path2599" /><path
         d="M 1393.94,1278.68 V 6049.96"
         style="fill:none;stroke:#000000;stroke-width:2.83465;stroke-linecap:butt;stroke-linejoin:miter;stroke-miterlimit:2.5;stroke-dasharray:none;stroke-opacity:1"
         id="path2601" /><path
         d="m 1393.94,1278.68 h 89.01"
         style="fill:none;stroke:#000000;stroke-width:2.83465;stroke-linecap:butt;stroke-linejoin:miter;stroke-miterlimit:2.5;stroke-dasharray:none;stroke-opacity:1"
         id="path2603" /><g
         id="g2605"
         transform="scale(10)"><text
           transform="matrix(1,0,0,-1,109.668,127.868)"
           style="font-variant:normal;font-weight:normal;font-size:18px;font-family:Helvetica;-inkscape-font-specification:Helvetica;writing-mode:lr-tb;fill:#000000;fill-opacity:1;fill-rule:nonzero;stroke:none"
           id="text2609"><tspan
             x="0 10.008 15.012"
             y="0"
             sodipodi:role="line"
             id="tspan2607">0.0</tspan></text></g><path
         d="m 1393.94,2233.11 h 89.01"
         style="fill:none;stroke:#000000;stroke-width:2.83465;stroke-linecap:butt;stroke-linejoin:miter;stroke-miterlimit:2.5;stroke-dasharray:none;stroke-opacity:1"
         id="path2611" /><g
         id="g2613"
         transform="scale(10)"><text
           transform="matrix(1,0,0,-1,109.668,217.301)"
           style="font-variant:normal;font-weight:normal;font-size:18px;font-family:Helvetica;-inkscape-font-specification:Helvetica;writing-mode:lr-tb;fill:#000000;fill-opacity:1;fill-rule:nonzero;stroke:none"
           id="text2617"><tspan
             x="0 10.008 15.012"
             y="0"
             sodipodi:role="line"
             id="tspan2615">0.2</tspan></text></g><path
         d="m 1393.94,3187.25 h 89.01"
         style="fill:none;stroke:#000000;stroke-width:2.83465;stroke-linecap:butt;stroke-linejoin:miter;stroke-miterlimit:2.5;stroke-dasharray:none;stroke-opacity:1"
         id="path2619" /><g
         id="g2621"
         transform="scale(10)"><text
           transform="matrix(1,0,0,-1,109.668,312.744)"
           style="font-variant:normal;font-weight:normal;font-size:18px;font-family:Helvetica;-inkscape-font-specification:Helvetica;writing-mode:lr-tb;fill:#000000;fill-opacity:1;fill-rule:nonzero;stroke:none"
           id="text2625"><tspan
             x="0 10.008 15.012"
             y="0"
             sodipodi:role="line"
             id="tspan2623">0.4</tspan></text></g><path
         d="m 1393.94,4141.39 h 89.01"
         style="fill:none;stroke:#000000;stroke-width:2.83465;stroke-linecap:butt;stroke-linejoin:miter;stroke-miterlimit:2.5;stroke-dasharray:none;stroke-opacity:1"
         id="path2627" /><g
         id="g2629"
         transform="scale(10)"><text
           transform="matrix(1,0,0,-1,109.668,408.158)"
           style="font-variant:normal;font-weight:normal;font-size:18px;font-family:Helvetica;-inkscape-font-specification:Helvetica;writing-mode:lr-tb;fill:#000000;fill-opacity:1;fill-rule:nonzero;stroke:none"
           id="text2633"><tspan
             x="0 10.008 15.012"
             y="0"
             sodipodi:role="line"
             id="tspan2631">0.6</tspan></text></g><path
         d="m 1393.94,5095.82 h 89.01"
         style="fill:none;stroke:#000000;stroke-width:2.83465;stroke-linecap:butt;stroke-linejoin:miter;stroke-miterlimit:2.5;stroke-dasharray:none;stroke-opacity:1"
         id="path2635" /><g
         id="g2637"
         transform="scale(10)"><text
           transform="matrix(1,0,0,-1,109.668,503.601)"
           style="font-variant:normal;font-weight:normal;font-size:18px;font-family:Helvetica;-inkscape-font-specification:Helvetica;writing-mode:lr-tb;fill:#000000;fill-opacity:1;fill-rule:nonzero;stroke:none"
           id="text2641"><tspan
             x="0 10.008 15.012"
             y="0"
             sodipodi:role="line"
             id="tspan2639">0.8</tspan></text></g><path
         d="m 1393.94,6049.96 h 89.01"
         style="fill:none;stroke:#000000;stroke-width:2.83465;stroke-linecap:butt;stroke-linejoin:miter;stroke-miterlimit:2.5;stroke-dasharray:none;stroke-opacity:1"
         id="path2643" /><g
         id="g2645"
         transform="scale(10)"><text
           transform="matrix(1,0,0,-1,109.668,594.536)"
           style="font-variant:normal;font-weight:normal;font-size:18px;font-family:Helvetica;-inkscape-font-specification:Helvetica;writing-mode:lr-tb;fill:#000000;fill-opacity:1;fill-rule:nonzero;stroke:none"
           id="text2649"><tspan
             x="0 10.008 15.012"
             y="0"
             sodipodi:role="line"
             id="tspan2647">1.0</tspan></text></g><path
         d="m 1393.94,1517.36 h 44.5"
         style="fill:none;stroke:#000000;stroke-width:2.83465;stroke-linecap:butt;stroke-linejoin:miter;stroke-miterlimit:2.5;stroke-dasharray:none;stroke-opacity:1"
         id="path2651" /><path
         d="m 1393.94,1755.75 h 44.5"
         style="fill:none;stroke:#000000;stroke-width:2.83465;stroke-linecap:butt;stroke-linejoin:miter;stroke-miterlimit:2.5;stroke-dasharray:none;stroke-opacity:1"
         id="path2653" /><path
         d="m 1393.94,1994.43 h 44.5"
         style="fill:none;stroke:#000000;stroke-width:2.83465;stroke-linecap:butt;stroke-linejoin:miter;stroke-miterlimit:2.5;stroke-dasharray:none;stroke-opacity:1"
         id="path2655" /><path
         d="m 1393.94,2471.5 h 44.5"
         style="fill:none;stroke:#000000;stroke-width:2.83465;stroke-linecap:butt;stroke-linejoin:miter;stroke-miterlimit:2.5;stroke-dasharray:none;stroke-opacity:1"
         id="path2657" /><path
         d="m 1393.94,2710.18 h 44.5"
         style="fill:none;stroke:#000000;stroke-width:2.83465;stroke-linecap:butt;stroke-linejoin:miter;stroke-miterlimit:2.5;stroke-dasharray:none;stroke-opacity:1"
         id="path2659" /><path
         d="m 1393.94,2948.57 h 44.5"
         style="fill:none;stroke:#000000;stroke-width:2.83465;stroke-linecap:butt;stroke-linejoin:miter;stroke-miterlimit:2.5;stroke-dasharray:none;stroke-opacity:1"
         id="path2661" /><path
         d="m 1393.94,3425.93 h 44.5"
         style="fill:none;stroke:#000000;stroke-width:2.83465;stroke-linecap:butt;stroke-linejoin:miter;stroke-miterlimit:2.5;stroke-dasharray:none;stroke-opacity:1"
         id="path2663" /><path
         d="m 1393.94,3664.32 h 44.5"
         style="fill:none;stroke:#000000;stroke-width:2.83465;stroke-linecap:butt;stroke-linejoin:miter;stroke-miterlimit:2.5;stroke-dasharray:none;stroke-opacity:1"
         id="path2665" /><path
         d="m 1393.94,3903 h 44.5"
         style="fill:none;stroke:#000000;stroke-width:2.83465;stroke-linecap:butt;stroke-linejoin:miter;stroke-miterlimit:2.5;stroke-dasharray:none;stroke-opacity:1"
         id="path2667" /><path
         d="m 1393.94,4380.07 h 44.5"
         style="fill:none;stroke:#000000;stroke-width:2.83465;stroke-linecap:butt;stroke-linejoin:miter;stroke-miterlimit:2.5;stroke-dasharray:none;stroke-opacity:1"
         id="path2669" /><path
         d="m 1393.94,4618.75 h 44.5"
         style="fill:none;stroke:#000000;stroke-width:2.83465;stroke-linecap:butt;stroke-linejoin:miter;stroke-miterlimit:2.5;stroke-dasharray:none;stroke-opacity:1"
         id="path2671" /><path
         d="m 1393.94,4857.14 h 44.5"
         style="fill:none;stroke:#000000;stroke-width:2.83465;stroke-linecap:butt;stroke-linejoin:miter;stroke-miterlimit:2.5;stroke-dasharray:none;stroke-opacity:1"
         id="path2673" /><path
         d="m 1393.94,5334.21 h 44.5"
         style="fill:none;stroke:#000000;stroke-width:2.83465;stroke-linecap:butt;stroke-linejoin:miter;stroke-miterlimit:2.5;stroke-dasharray:none;stroke-opacity:1"
         id="path2675" /><path
         d="m 1393.94,5572.89 h 44.5"
         style="fill:none;stroke:#000000;stroke-width:2.83465;stroke-linecap:butt;stroke-linejoin:miter;stroke-miterlimit:2.5;stroke-dasharray:none;stroke-opacity:1"
         id="path2677" /><path
         d="m 1393.94,5811.57 h 44.5"
         style="fill:none;stroke:#000000;stroke-width:2.83465;stroke-linecap:butt;stroke-linejoin:miter;stroke-miterlimit:2.5;stroke-dasharray:none;stroke-opacity:1"
         id="path2679" /><g
         id="g2681"
         transform="scale(10)"><text
           transform="matrix(0,1,1,0,95.5133,350.805)"
           style="font-variant:normal;font-weight:normal;font-size:18px;font-family:Helvetica;-inkscape-font-specification:Helvetica;writing-mode:lr-tb;fill:#000000;fill-opacity:1;fill-rule:nonzero;stroke:none"
           id="text2685"><tspan
             x="0"
             y="0"
             id="tspan2683">W</tspan></text><text
           transform="matrix(0,1,1,0,99.81018,367.7972)"
           style="font-variant:normal;font-weight:normal;font-size:11.16px;font-family:Helvetica;-inkscape-font-specification:Helvetica;writing-mode:lr-tb;fill:#000000;fill-opacity:1;fill-rule:nonzero;stroke:none"
           id="text2689"><tspan
             x="0 6.2049599"
             y="0"
             sodipodi:role="line"
             id="tspan2687">1D</tspan></text></g><path
         d="M 5836.12,1278.68 V 6049.96"
         style="fill:none;stroke:#000000;stroke-width:2.83465;stroke-linecap:butt;stroke-linejoin:miter;stroke-miterlimit:2.5;stroke-dasharray:none;stroke-opacity:1"
         id="path2691" /><path
         d="m 5836.12,1278.68 h -88.73"
         style="fill:none;stroke:#000000;stroke-width:2.83465;stroke-linecap:butt;stroke-linejoin:miter;stroke-miterlimit:2.5;stroke-dasharray:none;stroke-opacity:1"
         id="path2693" /><path
         d="m 5836.12,2233.11 h -88.73"
         style="fill:none;stroke:#000000;stroke-width:2.83465;stroke-linecap:butt;stroke-linejoin:miter;stroke-miterlimit:2.5;stroke-dasharray:none;stroke-opacity:1"
         id="path2695" /><path
         d="m 5836.12,3187.25 h -88.73"
         style="fill:none;stroke:#000000;stroke-width:2.83465;stroke-linecap:butt;stroke-linejoin:miter;stroke-miterlimit:2.5;stroke-dasharray:none;stroke-opacity:1"
         id="path2697" /><path
         d="m 5836.12,4141.39 h -88.73"
         style="fill:none;stroke:#000000;stroke-width:2.83465;stroke-linecap:butt;stroke-linejoin:miter;stroke-miterlimit:2.5;stroke-dasharray:none;stroke-opacity:1"
         id="path2699" /><path
         d="m 5836.12,5095.82 h -88.73"
         style="fill:none;stroke:#000000;stroke-width:2.83465;stroke-linecap:butt;stroke-linejoin:miter;stroke-miterlimit:2.5;stroke-dasharray:none;stroke-opacity:1"
         id="path2701" /><path
         d="m 5836.12,6049.96 h -88.73"
         style="fill:none;stroke:#000000;stroke-width:2.83465;stroke-linecap:butt;stroke-linejoin:miter;stroke-miterlimit:2.5;stroke-dasharray:none;stroke-opacity:1"
         id="path2703" /><path
         d="m 5836.12,1517.36 h -44.51"
         style="fill:none;stroke:#000000;stroke-width:2.83465;stroke-linecap:butt;stroke-linejoin:miter;stroke-miterlimit:2.5;stroke-dasharray:none;stroke-opacity:1"
         id="path2705" /><path
         d="m 5836.12,1755.75 h -44.51"
         style="fill:none;stroke:#000000;stroke-width:2.83465;stroke-linecap:butt;stroke-linejoin:miter;stroke-miterlimit:2.5;stroke-dasharray:none;stroke-opacity:1"
         id="path2707" /><path
         d="m 5836.12,1994.43 h -44.51"
         style="fill:none;stroke:#000000;stroke-width:2.83465;stroke-linecap:butt;stroke-linejoin:miter;stroke-miterlimit:2.5;stroke-dasharray:none;stroke-opacity:1"
         id="path2709" /><path
         d="m 5836.12,2471.5 h -44.51"
         style="fill:none;stroke:#000000;stroke-width:2.83465;stroke-linecap:butt;stroke-linejoin:miter;stroke-miterlimit:2.5;stroke-dasharray:none;stroke-opacity:1"
         id="path2711" /><path
         d="m 5836.12,2710.18 h -44.51"
         style="fill:none;stroke:#000000;stroke-width:2.83465;stroke-linecap:butt;stroke-linejoin:miter;stroke-miterlimit:2.5;stroke-dasharray:none;stroke-opacity:1"
         id="path2713" /><path
         d="m 5836.12,2948.57 h -44.51"
         style="fill:none;stroke:#000000;stroke-width:2.83465;stroke-linecap:butt;stroke-linejoin:miter;stroke-miterlimit:2.5;stroke-dasharray:none;stroke-opacity:1"
         id="path2715" /><path
         d="m 5836.12,3425.93 h -44.51"
         style="fill:none;stroke:#000000;stroke-width:2.83465;stroke-linecap:butt;stroke-linejoin:miter;stroke-miterlimit:2.5;stroke-dasharray:none;stroke-opacity:1"
         id="path2717" /><path
         d="m 5836.12,3664.32 h -44.51"
         style="fill:none;stroke:#000000;stroke-width:2.83465;stroke-linecap:butt;stroke-linejoin:miter;stroke-miterlimit:2.5;stroke-dasharray:none;stroke-opacity:1"
         id="path2719" /><path
         d="m 5836.12,3903 h -44.51"
         style="fill:none;stroke:#000000;stroke-width:2.83465;stroke-linecap:butt;stroke-linejoin:miter;stroke-miterlimit:2.5;stroke-dasharray:none;stroke-opacity:1"
         id="path2721" /><path
         d="m 5836.12,4380.07 h -44.51"
         style="fill:none;stroke:#000000;stroke-width:2.83465;stroke-linecap:butt;stroke-linejoin:miter;stroke-miterlimit:2.5;stroke-dasharray:none;stroke-opacity:1"
         id="path2723" /><path
         d="m 5836.12,4618.75 h -44.51"
         style="fill:none;stroke:#000000;stroke-width:2.83465;stroke-linecap:butt;stroke-linejoin:miter;stroke-miterlimit:2.5;stroke-dasharray:none;stroke-opacity:1"
         id="path2725" /><path
         d="m 5836.12,4857.14 h -44.51"
         style="fill:none;stroke:#000000;stroke-width:2.83465;stroke-linecap:butt;stroke-linejoin:miter;stroke-miterlimit:2.5;stroke-dasharray:none;stroke-opacity:1"
         id="path2727" /><path
         d="m 5836.12,5334.21 h -44.51"
         style="fill:none;stroke:#000000;stroke-width:2.83465;stroke-linecap:butt;stroke-linejoin:miter;stroke-miterlimit:2.5;stroke-dasharray:none;stroke-opacity:1"
         id="path2729" /><path
         d="m 5836.12,5572.89 h -44.51"
         style="fill:none;stroke:#000000;stroke-width:2.83465;stroke-linecap:butt;stroke-linejoin:miter;stroke-miterlimit:2.5;stroke-dasharray:none;stroke-opacity:1"
         id="path2731" /><path
         d="m 5836.12,5811.57 h -44.51"
         style="fill:none;stroke:#000000;stroke-width:2.83465;stroke-linecap:butt;stroke-linejoin:miter;stroke-miterlimit:2.5;stroke-dasharray:none;stroke-opacity:1"
         id="path2733" /><path
         d="m 1393.94,1361.73 16.72,3.97 16.16,4.25 15.88,4.54 15.87,4.82 15.31,5.1 15.02,5.1 15.02,5.67 14.46,5.67 14.46,5.95 13.89,6.52 13.89,6.24 13.6,6.8 13.61,7.09 13.04,7.37 13.04,7.37 12.75,7.94 12.76,7.93 12.47,8.23 12.19,8.5 11.9,8.78 11.91,8.79 11.91,9.36 11.34,9.35 11.62,9.64 11.05,9.92 11.34,9.92 10.77,10.49 10.78,10.49 10.76,10.49 10.49,11.05 10.49,11.06 10.21,11.33 10.2,11.34 10.21,11.63 9.92,11.62 9.64,11.9 9.63,12.19 9.64,12.19 9.64,12.47 9.35,12.48 9.07,12.75 9.36,12.76 9.07,13.04 8.79,13.04 9.07,13.04 8.79,13.32 8.5,13.32 8.51,13.61 8.78,13.32 8.22,13.89 79.94,140.32 73.13,144.28 66.9,145.14 62.08,143.43 58.11,140.03 53.86,134.93 51.02,129.82 47.91,123.88 45.35,117.92 42.8,111.97 41.11,106.02 38.83,100.34 37.42,95.25 35.71,89.85 34.02,85.04 32.88,80.79 31.75,76.25 30.62,72.29 29.19,68.6 28.63,64.91 27.5,61.8 26.65,58.67 25.79,55.85 24.94,53 24.38,50.74 23.53,48.19 22.96,46.21 22.4,43.93 21.82,41.96 21.26,40.25 20.7,38.55 20.12,37.13 19.56,35.15 19.27,34.02 19,32.6 18.42,31.46 18.15,30.05 17.57,28.91 17.29,28.07 17.01,26.92 16.44,25.8 16.44,24.95 15.88,24.09 15.58,23.53 15.31,22.39 15.31,21.83 14.74,20.98 14.74,20.4 14.17,19.85 14.18,18.99 13.89,18.43 13.6,18.14 13.33,17.29 13.32,17.01 13.04,16.44 12.75,15.87 12.48,15.31 12.47,15.02 12.19,14.74 12.19,14.18 11.9,13.89 11.63,13.6 11.62,13.04 11.34,12.76 11.33,12.47 11.06,12.19 11.05,11.62 10.78,11.62 10.48,11.34 10.78,10.77 10.2,10.77 10.49,10.49 10.2,10.21 9.92,10.2 9.93,9.64 9.92,9.64 9.63,9.07 9.64,9.35 9.36,8.79 9.35,8.79 9.36,8.5 9.07,8.22 9.07,8.22 9.07,8.22 8.79,7.66 8.78,7.65 8.79,7.65 8.5,7.38 8.51,7.36 8.5,7.09 79.94,63.78 72.85,53.57 67.18,45.36 62.08,38.84 57.83,34.01 54.14,29.48 50.74,26.08 47.9,23.24 45.36,20.98 43.08,18.71 40.82,17.01 39.12,15.3 37.13,14.18 35.72,13.04 34.3,11.9 32.88,11.06 31.47,10.2 30.61,9.36 29.48,8.78 28.35,8.22 27.5,7.66 26.64,7.08 25.8,6.81 24.94,6.52 24.38,5.95 23.53,5.67 22.96,5.38 22.39,5.11 21.83,4.82 21.26,4.53 h 20.69 20.13 19.84 19.28 18.7 18.43 18.14 17.57 17.3 17.01 16.72 16.16 15.87 15.87 15.31 15.03 15.02 14.46 14.45 13.89 13.89 13.61 13.61 13.04 13.03 12.76 12.76 12.18 12.48 11.9 11.91 11.62 11.62 11.63 11.05 11.06 11.05 10.77 10.77 10.49 10.49 10.2 10.21 9.92 9.92 9.92 9.64 9.64 9.35 9.36 9.35 9.07 9.07 9.08 8.78 8.79 8.79 8.5 8.5 8.51"
         style="fill:none;stroke:#000000;stroke-width:17.0079;stroke-linecap:butt;stroke-linejoin:miter;stroke-miterlimit:2.5;stroke-dasharray:none;stroke-opacity:1"
         id="path2735" /><path
         d="m 1393.94,1892.38 16.72,9.07 16.16,9.35 15.88,9.08 15.87,9.35 15.31,9.07 15.02,9.07 15.02,9.36 14.46,9.07 14.46,9.07 13.89,9.07 13.89,9.35 13.6,9.07 13.61,9.07 13.04,9.08 13.04,9.07 12.75,9.07 12.76,9.07 12.47,9.07 12.19,9.07 11.9,9.07 11.91,9.07 11.91,9.07 11.34,9.07 11.62,9.07 11.05,9.08 11.34,9.07 10.77,9.07 10.78,9.07 10.76,9.07 10.49,9.07 10.49,9.07 10.21,8.79 10.2,9.07 10.21,9.07 9.92,9.07 9.64,9.07 9.63,8.79 9.64,9.07 9.64,9.07 9.35,9.07 9.07,8.79 9.36,9.07 9.07,9.07 8.79,8.79 9.07,9.07 8.79,8.79 8.5,9.07 8.51,8.78 8.78,9.08 8.22,8.78 79.94,89.01 73.13,88.16 66.9,87.31 62.08,86.17 58.11,84.76 53.86,83.62 51.02,81.92 47.91,80.5 45.35,78.52 42.8,77.1 41.11,74.84 38.83,73.42 37.42,71.15 35.71,69.45 34.02,67.46 32.88,65.48 31.75,63.78 30.62,61.51 29.19,60.1 28.63,58.11 27.5,56.12 26.65,54.43 25.79,53.01 24.94,51.02 24.38,49.61 23.53,47.9 22.96,46.21 22.4,45.07 21.82,43.37 21.26,41.95 20.7,40.82 20.12,39.4 19.56,37.99 19.27,36.85 19,35.71 18.42,34.58 18.15,33.74 17.57,32.32 17.29,31.46 17.01,30.33 16.44,29.48 16.44,28.63 15.88,27.49 15.58,26.93 15.31,26.08 15.31,25.23 14.74,24.38 14.74,23.81 14.17,22.96 14.18,22.39 13.89,21.83 13.6,20.98 13.33,20.41 13.32,19.84 13.04,19.28 12.75,18.7 12.48,18.43 12.47,17.57 12.19,17.3 12.19,16.72 11.9,16.44 11.63,15.88 11.62,15.3 11.34,15.03 11.33,14.74 11.06,14.17 11.05,13.89 10.78,13.32 10.48,13.32 10.78,12.76 10.2,12.47 10.49,12.19 10.2,11.91 9.92,11.62 9.93,11.34 9.92,11.05 9.63,10.78 9.64,10.48 9.36,10.21 9.35,9.92 9.36,9.92 9.07,9.64 9.07,9.35 9.07,9.07 8.79,8.79 8.78,8.79 8.79,8.5 8.5,8.23 8.51,8.21 8.5,7.94 79.94,70.87 72.85,57.54 67.18,47.62 62.08,39.97 57.83,33.45 54.14,28.63 50.74,24.66 47.9,21.55 45.36,18.7 43.08,16.16 40.82,14.74 39.12,12.76 37.13,11.62 35.72,10.2 34.3,9.36 32.88,8.5 31.47,7.66 30.61,7.08 29.48,6.52 28.35,5.67 27.5,5.67 26.64,4.82 25.8,4.54 24.94,4.53 24.38,3.97 23.53,3.68 22.96,3.41 22.39,3.11 21.83,3.12 21.26,2.84 20.69,2.55 20.13,2.55 19.84,2.27 19.28,2.26 18.7,2.27 18.43,1.99 18.14,1.7 17.57,1.98 17.3,1.7 17.01,1.42 16.72,1.7 16.16,1.42 15.87,1.41 15.87,1.14 15.31,1.42 15.03,1.13 15.02,1.13 14.46,1.14 14.45,1.13 13.89,0.85 13.89,1.14 13.61,0.85 13.61,0.85 13.04,0.85 13.03,0.85 12.76,0.85 12.76,0.85 12.18,0.57 12.48,0.85 11.9,0.56 11.91,0.85 11.62,0.57 11.62,0.57 11.63,0.56 11.05,0.57 11.06,0.57 11.05,0.56 10.77,0.57 10.77,0.57 10.49,0.57 10.49,0.28 10.2,0.56 10.21,0.57 9.92,0.29 9.92,0.56 9.92,0.29 9.64,0.28 9.64,0.56 9.35,0.29 9.36,0.29 9.35,0.56 9.07,0.28 9.07,0.29 9.08,0.28 8.78,0.28 8.79,0.57 8.79,0.29 8.5,0.28 8.5,0.28 8.51,0.28"
         style="fill:none;stroke:#000000;stroke-width:17.0079;stroke-linecap:butt;stroke-linejoin:miter;stroke-miterlimit:2.5;stroke-dasharray:56.693, 56.693;stroke-dashoffset:0;stroke-opacity:1"
         id="path2737" /><path
         d="m 1393.94,2342.52 16.72,13.32 16.16,12.76 15.88,13.04 15.87,12.75 15.31,12.48 15.02,12.76 15.02,12.18 14.46,12.48 14.46,12.19 13.89,12.18 13.89,11.91 13.6,11.91 13.61,11.9 13.04,11.91 13.04,11.62 12.75,11.62 12.76,11.62 12.47,11.34 12.19,11.34 11.9,11.34 11.91,11.34 11.91,11.33 11.34,11.06 11.62,11.06 11.05,11.05 11.34,10.77 10.77,11.06 10.78,10.77 10.76,10.77 10.49,10.49 10.49,10.77 10.21,10.49 10.2,10.77 10.21,10.49 9.92,10.49 9.64,10.2 9.63,10.49 9.64,10.2 9.64,10.49 9.35,10.21 9.07,10.2 9.36,10.21 9.07,9.92 8.79,10.2 9.07,9.93 8.79,9.92 8.5,9.92 8.51,9.92 8.78,9.92 8.22,9.92 79.94,96.38 73.13,93.54 66.9,90.43 62.08,87.87 58.11,85.32 53.86,83.06 51.02,80.5 47.91,78.52 45.35,75.97 42.8,73.99 41.11,71.43 38.83,69.45 37.42,67.46 35.71,64.92 34.02,63.21 32.88,60.94 31.75,58.96 30.62,57.27 29.19,54.99 28.63,53.29 27.5,51.31 26.65,49.89 25.79,47.9 24.94,46.21 24.38,44.79 23.53,43.08 22.96,41.67 22.4,39.97 21.82,38.83 21.26,37.42 20.7,36 20.12,34.87 19.56,33.44 19.27,32.61 19,31.18 18.42,30.33 18.15,29.19 17.57,28.07 17.29,27.21 17.01,26.36 16.44,25.23 16.44,24.38 15.88,23.81 15.58,22.96 15.31,22.11 15.31,21.26 14.74,20.69 14.74,20.13 14.17,19.27 14.18,18.71 13.89,18.14 13.6,17.58 13.33,17.01 13.32,16.44 13.04,15.87 12.75,15.31 12.48,15.02 12.47,14.46 12.19,14.17 12.19,13.61 11.9,13.04 11.63,12.75 11.62,12.48 11.34,11.9 11.33,11.91 11.06,11.05 11.05,11.06 10.78,10.77 10.48,10.49 10.78,9.92 10.2,9.92 10.49,9.35 10.2,9.36 9.92,8.79 9.93,8.78 9.92,8.51 9.63,8.22 9.64,8.22 9.36,7.65 9.35,7.66 9.36,7.36 9.07,7.38 9.07,6.8 9.07,6.8 8.79,6.81 8.78,6.52 8.79,6.23 8.5,6.24 8.51,5.95 8.5,5.67 79.94,51.02 72.85,39.97 67.18,31.75 62.08,25.79 57.83,20.7 54.14,17.01 50.74,14.17 47.9,11.62 45.36,9.92 43.08,8.51 40.82,7.08 39.12,5.96 37.13,5.1 35.72,4.54 34.3,3.96 32.88,3.4 31.47,2.84 30.61,2.55 29.48,2.27 28.35,1.98 27.5,1.7 26.64,1.42 25.8,1.42 24.94,1.13 24.38,1.13 23.53,1.14 22.96,0.85 22.39,0.57 21.83,0.85 21.26,0.56 20.69,0.57 20.13,0.29 19.84,0.56 19.28,0.29 18.7,0.56 18.43,0.28 18.14,0.29 17.57,0.28 17.3,0.29 h 17.01 l 16.72,0.28 16.16,0.28 h 15.87 l 15.87,0.29 h 15.31 15.03 l 15.02,0.28 h 14.46 14.45 l 13.89,0.28 h 13.89 13.61 13.61 13.04 l 13.03,0.29 h 12.76 12.76 12.18 12.48 11.9 11.91 11.62 11.62 11.63 l 11.05,0.28 h 11.06 11.05 10.77 10.77 10.49 10.49 10.2 10.21 9.92 9.92 9.92 9.64 9.64 9.35 9.36 9.35 9.07 9.07 9.08 8.78 8.79 8.79 8.5 8.5 8.51"
         style="fill:none;stroke:#000000;stroke-width:5.6693;stroke-linecap:butt;stroke-linejoin:miter;stroke-miterlimit:2.5;stroke-dasharray:56.693, 56.693;stroke-dashoffset:0;stroke-opacity:1"
         id="path2739" /><path
         d="m 1393.94,1441.95 16.72,5.39 16.16,5.39 15.88,5.66 15.87,5.39 15.31,5.95 15.02,5.67 15.02,5.96 14.46,5.95 14.46,5.95 13.89,6.24 13.89,6.23 13.6,6.24 13.61,6.52 13.04,6.24 13.04,6.52 12.75,6.52 12.76,6.8 12.47,6.8 12.19,6.52 11.9,7.09 11.91,6.8 11.91,6.81 11.34,7.08 11.62,7.09 11.05,7.08 11.34,7.09 10.77,7.37 10.78,7.09 10.76,7.37 10.49,7.37 10.49,7.37 10.21,7.37 10.2,7.65 10.21,7.37 9.92,7.65 9.64,7.66 9.63,7.65 9.64,7.65 9.64,7.66 9.35,7.65 9.07,7.94 9.36,7.65 9.07,7.94 8.79,7.94 9.07,7.65 8.79,7.94 8.5,7.93 8.51,8.22 8.78,7.94 8.22,7.94 79.94,81.35 73.13,83.06 66.9,83.9 62.08,84.48 58.11,84.47 53.86,83.91 51.02,83.33 47.91,82.49 45.35,81.07 42.8,80.22 41.11,78.52 38.83,76.82 37.42,75.41 35.71,73.41 34.02,72 32.88,70.02 31.75,68.31 30.62,66.33 29.19,64.63 28.63,62.93 27.5,61.23 26.65,59.25 25.79,57.82 24.94,55.85 24.38,54.42 23.53,52.73 22.96,51.02 22.4,49.6 21.82,48.2 21.26,46.77 20.7,45.35 20.12,43.94 19.56,42.52 19.27,41.38 19,40.25 18.42,38.84 18.15,37.98 17.57,36.57 17.29,35.72 17.01,34.58 16.44,33.45 16.44,32.6 15.88,31.75 15.58,30.89 15.31,29.77 15.31,29.19 14.74,28.07 14.74,27.49 14.17,26.65 14.18,26.08 13.89,25.23 13.6,24.66 13.33,23.81 13.32,23.53 13.04,22.67 12.75,22.12 12.48,21.25 12.47,20.98 12.19,20.41 12.19,20.12 11.9,19.28 11.63,18.99 11.62,18.43 11.34,18.14 11.33,17.57 11.06,17.01 11.05,16.73 10.78,16.44 10.48,15.87 10.78,15.59 10.2,15.31 10.49,14.74 10.2,14.46 9.92,14.45 9.93,13.89 9.92,13.33 9.63,13.32 9.64,13.04 9.36,12.75 9.35,12.48 9.36,12.18 9.07,11.91 9.07,11.62 9.07,11.34 8.79,11.06 8.78,11.05 8.79,10.77 8.5,10.49 8.51,10.21 8.5,10.2 79.94,90.71 72.85,75.4 67.18,63.5 62.08,53.86 57.83,46.49 54.14,40.25 50.74,35.15 47.9,30.89 45.36,27.5 43.08,24.38 40.82,22.11 39.12,19.56 37.13,17.86 35.72,16.44 34.3,14.74 32.88,13.6 31.47,12.48 30.61,11.33 29.48,10.78 28.35,9.63 27.5,9.07 26.64,8.51 25.8,7.94 24.94,7.37 24.38,6.8 23.53,6.52 22.96,5.95 22.39,5.67 21.83,5.39 21.26,5.1 20.69,4.82 20.13,4.54 19.84,4.25 19.28,3.96 18.7,3.97 18.43,3.69 18.14,3.4 17.57,3.4 17.3,3.12 17.01,2.83 16.72,2.84 16.16,2.83 15.87,2.55 15.87,2.55 15.31,2.55 15.03,2.27 15.02,2.27 14.46,1.99 14.45,1.98 13.89,1.98 13.89,1.99 13.61,1.7 13.61,1.7 13.04,1.7 13.03,1.7 12.76,1.42 12.76,1.7 12.18,1.42 12.48,1.41 11.9,1.42 11.91,1.14 11.62,1.41 11.62,1.14 11.63,1.13 11.05,1.14 11.06,1.13 11.05,1.13 10.77,1.14 10.77,0.85 10.49,1.13 10.49,0.85 10.2,0.85 10.21,0.85 9.92,0.85 9.92,0.85 9.92,0.85 9.64,0.85 9.64,0.85 9.35,0.57 9.36,0.85 9.35,0.85 9.07,0.57 9.07,0.57 9.08,0.85 8.78,0.56 8.79,0.57 8.79,0.57 8.5,0.85 8.5,0.56 8.51,0.57"
         style="fill:none;stroke:#000000;stroke-width:5.6693;stroke-linecap:butt;stroke-linejoin:miter;stroke-miterlimit:2.5;stroke-dasharray:56.693, 56.693;stroke-dashoffset:0;stroke-opacity:1"
         id="path2741" /><path
         d="m 1393.94,1302.21 16.72,3.11 16.16,3.12 15.88,3.4 15.87,3.69 15.31,3.68 15.02,4.25 15.02,4.54 14.46,4.54 14.46,4.82 13.89,5.1 13.89,5.67 13.6,5.67 13.61,5.66 13.04,6.24 13.04,6.52 12.75,6.8 12.76,6.81 12.47,7.37 12.19,7.37 11.9,7.65 11.91,7.94 11.91,8.22 11.34,8.5 11.62,8.51 11.05,9.07 11.34,9.07 10.77,9.35 10.78,9.36 10.76,9.92 10.49,9.92 10.49,9.92 10.21,10.49 10.2,10.49 10.21,10.77 9.92,10.77 9.64,11.05 9.63,11.34 9.64,11.34 9.64,11.34 9.35,11.91 9.07,11.62 9.36,12.19 9.07,11.9 8.79,12.19 9.07,12.48 8.79,12.47 8.5,12.47 8.51,12.76 8.78,12.75 8.22,13.04 79.94,133.23 73.13,138.05 66.9,139.46 62.08,138.62 58.11,135.49 53.86,131.25 51.02,126.42 47.91,120.76 45.35,115.37 42.8,109.42 41.11,104.03 38.83,98.64 37.42,93.27 35.71,88.44 34.02,83.62 32.88,88.44 31.75,83.62 30.62,79.37 29.19,75.12 28.63,71.15 27.5,67.75 26.65,64.34 25.79,60.95 24.94,58.39 24.38,55.28 23.53,53.01 22.96,50.45 22.4,47.91 21.82,46.2 21.26,43.94 20.7,42.24 20.12,40.25 19.56,38.83 19.27,37.14 19,35.72 18.42,34.29 18.15,32.88 17.57,31.75 17.29,30.62 17.01,29.19 16.44,28.63 16.44,27.22 15.88,26.36 15.58,25.51 15.31,24.66 15.31,23.81 14.74,22.97 14.74,22.39 14.17,21.54 14.18,20.69 13.89,20.41 13.6,19.56 13.33,19 13.32,18.42 13.04,17.86 12.75,17.57 12.48,17.01 12.47,16.44 12.19,15.88 12.19,15.59 11.9,15.02 11.63,14.74 11.62,14.46 11.34,13.89 11.33,13.6 11.06,13.32 11.05,12.76 10.78,12.76 10.48,12.19 10.78,11.9 10.2,11.91 10.49,11.34 10.2,11.34 9.92,10.77 9.93,10.77 9.92,10.2 9.63,10.21 9.64,9.92 9.36,9.92 9.35,9.35 9.36,9.36 9.07,9.36 9.07,8.78 9.07,8.79 8.79,8.5 8.78,8.51 8.79,8.22 8.5,7.93 8.51,7.94 8.5,7.94 79.94,69.73 72.85,58.39 67.18,49.61 62.08,42.52 57.83,36.85 54.14,32.32 50.74,28.63 47.9,25.23 45.36,22.95 43.08,20.41 40.82,18.43 39.12,17.01 37.13,15.31 35.72,14.17 34.3,13.04 32.88,11.9 31.47,11.06 30.61,10.49 29.48,9.35 28.35,9.07 h 27.5 26.64 25.8 24.94 24.38 23.53 22.96 22.39 21.83 21.26 20.69 20.13 19.84 19.28 18.7 18.43 18.14 17.57 17.3 17.01 16.72 16.16 15.87 15.87 15.31 15.03 15.02 14.46 14.45 13.89 13.89 13.61 13.61 13.04 13.03 12.76 12.76 12.18 12.48 11.9 11.91 11.62 11.62 11.63 11.05 11.06 11.05 10.77 10.77 10.49 10.49 10.2 10.21 9.92 9.92 9.92 9.64 9.64 9.35 9.36 9.35 9.07 9.07 9.08 8.78 8.79 8.79 8.5 8.5 8.51"
         style="fill:none;stroke:#0000ff;stroke-width:11.3386;stroke-linecap:butt;stroke-linejoin:miter;stroke-miterlimit:2.5;stroke-dasharray:none;stroke-opacity:1"
         id="path2743" /><path
         d="m 3137.53,2710.18 h 339.88"
         style="fill:none;stroke:#000000;stroke-width:17.0079;stroke-linecap:butt;stroke-linejoin:miter;stroke-miterlimit:2.5;stroke-dasharray:none;stroke-opacity:1"
         id="path2745" /><g
         id="g2747"
         transform="scale(10)"><text
           transform="matrix(1,0,0,-1,354.459,266.227)"
           style="font-variant:normal;font-weight:normal;font-size:18px;font-family:Helvetica;-inkscape-font-specification:Helvetica;writing-mode:lr-tb;fill:#000000;fill-opacity:1;fill-rule:nonzero;stroke:none"
           id="text2751"><tspan
             x="0 12.006 22.014 32.021999 37.026001 41.021999 51.029999 56.034 66.042 71.045998 76.050003 86.057999 90.054001 95.057999 100.062 106.056 116.064 126.072 136.08 146.088"
             y="0"
             sodipodi:role="line"
             id="tspan2749">Boutle et al. (2014)</tspan></text></g><path
         d="m 3137.53,2471.5 h 339.88"
         style="fill:none;stroke:#000000;stroke-width:17.0079;stroke-linecap:butt;stroke-linejoin:miter;stroke-miterlimit:2.5;stroke-dasharray:56.693, 56.693;stroke-dashoffset:0;stroke-opacity:1"
         id="path2753" /><g
         id="g2755"
         transform="scale(10)"><text
           transform="matrix(1,0,0,-1,354.459,242.388)"
           style="font-variant:normal;font-weight:normal;font-size:18px;font-family:Helvetica;-inkscape-font-specification:Helvetica;writing-mode:lr-tb;fill:#000000;fill-opacity:1;fill-rule:nonzero;stroke:none"
           id="text2759"><tspan
             x="0 12.996 23.004 33.012001 43.02 53.028 59.021999 64.026001 69.029999 79.038002 84.042 89.045998 99.054001 103.05 108.054 113.058 119.052 129.06 139.06799 149.076 159.084"
             y="0"
             sodipodi:role="line"
             id="tspan2757">Honnert et al. (2011)</tspan></text></g><path
         d="m 3137.53,2233.11 h 339.88"
         style="fill:none;stroke:#0000ff;stroke-width:17.0079;stroke-linecap:butt;stroke-linejoin:miter;stroke-miterlimit:2.5;stroke-dasharray:none;stroke-opacity:1"
         id="path2761" /><g
         id="g2763"
         transform="scale(10)"><text
           transform="matrix(1,0,0,-1,354.459,218.52)"
           style="font-variant:normal;font-weight:normal;font-size:18px;font-family:Helvetica;-inkscape-font-specification:Helvetica;writing-mode:lr-tb;fill:#0000ff;fill-opacity:1;fill-rule:nonzero;stroke:none"
           id="text2767"><tspan
             x="0 9 19.007999 29.016001 39.023998 44.028"
             y="0"
             sodipodi:role="line"
             id="tspan2765">vn10.1</tspan></text></g></g></g></svg>
